<svg width="20" height="20" viewBox="0 0 20 20" fill="none" xmlns="http://www.w3.org/2000/svg">
<path fill-rule="evenodd" clip-rule="evenodd" d="M17.1086 3.77529C17.3527 3.53121 17.3527 3.13548 17.1086 2.8914C16.8645 2.64732 16.4688 2.64732 16.2247 2.8914L2.89139 16.2247C2.64731 16.4688 2.64731 16.8645 2.89139 17.1086C3.13547 17.3527 3.5312 17.3527 3.77528 17.1086L6.14769 14.7362C7.28628 15.2722 8.59766 15.625 10 15.625C12.2367 15.625 14.242 14.7274 15.6838 13.6208C16.4061 13.0664 17.0027 12.448 17.4241 11.8407C17.8339 11.2502 18.125 10.6023 18.125 10C18.125 9.39776 17.8339 8.74977 17.4241 8.1593C17.0027 7.55205 16.4061 6.93358 15.6838 6.3792C15.4654 6.21155 15.234 6.0487 14.9909 5.89303L17.1086 3.77529ZM14.0829 6.80095L12.6073 8.27664C12.9345 8.77066 13.125 9.36308 13.125 10C13.125 11.7259 11.7259 13.125 10 13.125C9.36307 13.125 8.77065 12.9345 8.27663 12.6073L7.09603 13.7879C7.98397 14.1496 8.96843 14.375 10 14.375C11.9055 14.375 13.6502 13.6059 14.9228 12.6292C15.5577 12.1419 16.0595 11.6145 16.3971 11.128C16.7464 10.6248 16.875 10.2311 16.875 10C16.875 9.76893 16.7464 9.37525 16.3971 8.87197C16.0595 8.38547 15.5577 7.85811 14.9228 7.37082C14.6618 7.17051 14.381 6.97894 14.0829 6.80095ZM9.19162 11.6923C9.43639 11.8094 9.71053 11.875 10 11.875C11.0355 11.875 11.875 11.0355 11.875 10C11.875 9.71054 11.8094 9.4364 11.6923 9.19163L9.19162 11.6923Z" fill="#667084"/>
<path d="M10 4.37501C10.8363 4.37501 11.6402 4.50049 12.3945 4.71546C12.5733 4.76642 12.6265 4.98967 12.495 5.12114L11.8722 5.74395C11.8103 5.8058 11.7207 5.83053 11.6354 5.81117C11.1096 5.69186 10.5618 5.62501 10 5.62501C8.09454 5.62501 6.34982 6.39411 5.07723 7.37082C4.44231 7.85811 3.94048 8.38547 3.60285 8.87197C3.25359 9.37525 3.125 9.76893 3.125 10C3.125 10.2311 3.25359 10.6248 3.60285 11.128C3.89089 11.5431 4.29845 11.9879 4.80619 12.4122C4.9215 12.5085 4.93254 12.6836 4.82629 12.7898L4.29533 13.3208C4.20502 13.4111 4.06091 13.4191 3.96337 13.3366C3.39857 12.8592 2.92662 12.3461 2.57592 11.8407C2.16614 11.2502 1.875 10.6023 1.875 10C1.875 9.39776 2.16614 8.74977 2.57592 8.1593C2.99734 7.55205 3.59385 6.93358 4.31617 6.3792C5.75804 5.27258 7.76332 4.37501 10 4.37501Z" fill="#667084"/>
<path d="M10 6.87501C10.0729 6.87501 10.1451 6.8775 10.2168 6.88241C10.414 6.89593 10.4856 7.13055 10.3458 7.27035L9.38949 8.22665C8.84506 8.41404 8.41403 8.84507 8.22664 9.3895L7.27034 10.3458C7.13054 10.4856 6.89591 10.414 6.8824 10.2168C6.87749 10.1452 6.875 10.0729 6.875 10C6.875 8.27412 8.27411 6.87501 10 6.87501Z" fill="#667084"/>
</svg>